<svg xmlns="http://www.w3.org/2000/svg" width="145" height="162" viewBox="0 0 145 162">
    <g fill="#CEC155" fill-rule="evenodd">
        <text font-family="BrandonText-Black, Brandon Text" font-size="20" font-weight="700" letter-spacing="9.573" transform="translate(-1)">
            <tspan x="0" y="161">UNSHELF</tspan>
        </text>
        <path fill-rule="nonzero" d="M62.963 42.125c.07.141.211.423.282 1.48 0 .352.07.704.07 1.056 0 .352.07.705.07 1.057.071.845.142 2.395.212 3.804.07 1.127.14 2.254.14 2.817a3.306 3.306 0 0 0 3.312 3.03h.634A3.286 3.286 0 0 0 70.64 57.2h3.945a3.286 3.286 0 0 0 2.959-1.832h.634c1.69 0 3.17-1.338 3.31-3.029.071-.563.071-1.69.142-2.817.07-1.41.14-2.959.21-3.804 0-.352.071-.705.071-1.127 0-.353.07-.705.07-1.057.071-1.057.212-1.338.283-1.48.704-1.197 1.55-2.324 2.324-3.38 2.466-3.523 4.86-6.834 4.86-11.765 0-4.79-2.042-9.369-5.635-12.609a17.03 17.03 0 0 0-13.243-4.156c-8.383.986-14.864 8.383-14.793 16.836.07 4.93 2.395 8.171 4.86 11.623.775 1.197 1.55 2.325 2.325 3.522zm7.89-29.727c4.226-.493 8.312.775 11.482 3.593 3.1 2.747 4.931 6.762 4.931 10.918 0 4.227-2.043 7.115-4.438 10.496-.775 1.128-1.62 2.255-2.395 3.523-.211.422-.352.915-.493 1.408H65.288c-.07-.563-.212-1.056-.493-1.408-.775-1.268-1.62-2.395-2.395-3.523-2.396-3.31-4.438-6.199-4.438-10.355-.07-7.326 5.565-13.736 12.89-14.652zM47.466 30.15a2.466 2.466 0 1 1 0-4.931 2.466 2.466 0 0 1 0 4.93zm50.296 0a2.466 2.466 0 1 1 0-4.931 2.466 2.466 0 0 1 0 4.93zM72.614 4.93a2.466 2.466 0 1 1 0-4.931 2.466 2.466 0 0 1 0 4.931zM56.56 47.255a2.465 2.465 0 1 1-3.487-3.486 2.465 2.465 0 0 1 3.487 3.486zm35.605-35.66a2.465 2.465 0 1 1-3.487-3.487 2.465 2.465 0 0 1 3.487 3.487zm.027 35.633a2.465 2.465 0 1 1-3.486-3.487 2.465 2.465 0 0 1 3.486 3.487zm-35.66-35.605a2.465 2.465 0 1 1-3.487-3.487 2.465 2.465 0 0 1 3.487 3.487zM51 69v43h4.3V99.1h34.4V112H94V69H51zm17 13v-9h22v9H68zm-13-9h9v9h-9v-9zm0 13h22v9H55v-9zm26 9v-9h9v9h-9z"/>
    </g>
</svg>
