<?xml version="1.0" encoding="UTF-8"?>
<svg width="145px" height="162px" viewBox="0 0 145 162" version="1.1" xmlns="http://www.w3.org/2000/svg" xmlns:xlink="http://www.w3.org/1999/xlink">
    <!-- Generator: Sketch 49 (51002) - http://www.bohemiancoding.com/sketch -->
    <title>logo</title>
    <desc>Created with Sketch.</desc>
    <defs></defs>
    <g id="Page-1" stroke="none" stroke-width="1" fill="none" fill-rule="evenodd">
        <g id="Artboard-Copy" transform="translate(-102.000000, -76.000000)" fill="#CEC155">
            <g id="logo" transform="translate(102.000000, 76.000000)">
                <path d="M0.44,155.88 L0.44,147.38 C0.44,147.18 0.62,147 0.82,147 L3.28,147 C3.5,147 3.66,147.18 3.66,147.38 L3.66,155.72 C3.66,157.18 4.7,158 6.12,158 C7.56,158 8.62,157.18 8.62,155.72 L8.62,147.38 C8.62,147.18 8.78,147 9,147 L11.46,147 C11.66,147 11.84,147.18 11.84,147.38 L11.84,155.88 C11.84,158.92 9.28,161.2 6.12,161.2 C2.98,161.2 0.44,158.92 0.44,155.88 Z M24.4333328,160.62 L24.4133328,147.16 C24.4133328,146.96 24.5933328,146.8 24.7933328,146.8 L25.0933328,146.8 C25.2933328,146.8 25.4333328,146.94 25.5933328,147.1 L33.2733328,154.48 L33.2933328,154.48 L33.2933328,147.38 C33.2933328,147.18 33.4533328,147 33.6733328,147 L36.0733328,147 C36.2733328,147 36.4533328,147.18 36.4533328,147.38 L36.4533328,160.84 C36.4533328,161.08 36.2733328,161.2 36.0733328,161.2 L35.8733328,161.2 C35.6733328,161.2 35.5333328,161.14 35.3733328,160.98 L27.5933328,153.16 L27.5733328,153.16 L27.5733328,160.62 C27.5733328,160.82 27.4133328,161 27.1933328,161 L24.8133328,161 C24.6133328,161 24.4333328,160.82 24.4333328,160.62 Z M53.1666656,161.2 C50.5666656,161.2 49.1266656,160.12 48.6666656,159.66 C48.5066656,159.5 48.4466656,159.32 48.5866656,159.06 L49.5066656,157.44 C49.6666656,157.18 49.9866656,157.18 50.1866656,157.32 C50.7466656,157.7 51.7666656,158.42 53.0266656,158.42 C53.8266656,158.42 54.4066656,157.92 54.4066656,157.22 C54.4066656,156.38 53.6666656,155.84 52.3466656,155.2 C50.4066656,154.26 48.4666656,153.18 48.4666656,150.78 C48.4666656,148.8 50.0066656,146.8 53.0866656,146.8 C55.1666656,146.8 56.7666656,147.86 57.3666656,148.3 C57.6066656,148.44 57.5666656,148.8 57.4866656,148.94 L56.4666656,150.48 C56.3266656,150.7 55.9866656,150.86 55.5866656,150.62 C55.1266656,150.3 53.9466656,149.54 52.8866656,149.54 C52.0466656,149.54 51.6666656,150.06 51.6666656,150.64 C51.6666656,151.3 52.4466656,151.82 53.8466656,152.5 C55.6066656,153.36 57.8866656,154.34 57.8866656,157.06 C57.8866656,159.12 56.1066656,161.2 53.1666656,161.2 Z M69.8199984,160.62 L69.8199984,147.38 C69.8199984,147.18 69.9999984,147 70.1999984,147 L72.5799984,147 C72.7999984,147 72.9599984,147.18 72.9599984,147.38 L72.9599984,152.42 L78.6799984,152.42 L78.6799984,147.38 C78.6799984,147.18 78.8399984,147 79.0599984,147 L81.4399984,147 C81.6399984,147 81.8199984,147.18 81.8199984,147.38 L81.8199984,160.62 C81.8199984,160.82 81.6399984,161 81.4399984,161 L79.0599984,161 C78.8399984,161 78.6799984,160.82 78.6799984,160.62 L78.6799984,155.36 L72.9599984,155.36 L72.9599984,160.62 C72.9599984,160.82 72.7999984,161 72.5799984,161 L70.1999984,161 C69.9999984,161 69.8199984,160.82 69.8199984,160.62 Z M94.5533311,160.62 L94.5533311,147.38 C94.5533311,147.18 94.7133311,147 94.9333311,147 L103.213331,147 C103.433331,147 103.593331,147.18 103.593331,147.38 L103.593331,149.56 C103.593331,149.76 103.433331,149.94 103.213331,149.94 L97.6733311,149.94 L97.6733311,152.42 L102.233331,152.42 C102.433331,152.42 102.613331,152.6 102.613331,152.8 L102.613331,154.98 C102.613331,155.2 102.433331,155.36 102.233331,155.36 L97.6733311,155.36 L97.6733311,158.06 L103.213331,158.06 C103.433331,158.06 103.593331,158.24 103.593331,158.44 L103.593331,160.62 C103.593331,160.82 103.433331,161 103.213331,161 L94.9333311,161 C94.7133311,161 94.5533311,160.82 94.5533311,160.62 Z M115.686664,160.62 L115.686664,147.38 C115.686664,147.18 115.846664,147 116.066664,147 L118.446664,147 C118.646664,147 118.826664,147.18 118.826664,147.38 L118.826664,158.06 L123.586664,158.06 C123.806664,158.06 123.966664,158.24 123.966664,158.44 L123.966664,160.62 C123.966664,160.82 123.806664,161 123.586664,161 L116.066664,161 C115.846664,161 115.686664,160.82 115.686664,160.62 Z M135.459997,160.62 L135.459997,147.38 C135.459997,147.18 135.619997,147 135.839997,147 L144.119997,147 C144.339997,147 144.499997,147.18 144.499997,147.38 L144.499997,149.56 C144.499997,149.76 144.339997,149.94 144.119997,149.94 L138.579997,149.94 L138.579997,152.82 L143.139997,152.82 C143.339997,152.82 143.519997,153 143.519997,153.2 L143.519997,155.38 C143.519997,155.58 143.339997,155.76 143.139997,155.76 L138.579997,155.76 L138.579997,160.62 C138.579997,160.82 138.399997,161 138.199997,161 L135.839997,161 C135.619997,161 135.459997,160.82 135.459997,160.62 Z" id="UNSHELF"></path>
                <path d="M57.9630542,42.1251232 C58.0334975,42.2660099 58.1743842,42.5477833 58.2448276,43.6044335 C58.2448276,43.9566502 58.3152709,44.308867 58.3152709,44.6610837 C58.3152709,45.0133005 58.3857143,45.3655172 58.3857143,45.717734 C58.4561576,46.5630542 58.526601,48.1128079 58.5970443,49.5216749 C58.6674877,50.6487685 58.737931,51.7758621 58.737931,52.3394089 C58.8788177,54.0300493 60.2876847,55.3684729 62.0487685,55.3684729 L62.6827586,55.3684729 C63.2463054,56.4955665 64.373399,57.2 65.6413793,57.2 L69.5862069,57.2 C70.8541872,57.2 71.9812808,56.4955665 72.5448276,55.3684729 L73.1788177,55.3684729 C74.8694581,55.3684729 76.3487685,54.0300493 76.4896552,52.3394089 C76.5600985,51.7758621 76.5600985,50.6487685 76.6305419,49.5216749 C76.7009852,48.1128079 76.7714286,46.5630542 76.8418719,45.717734 C76.8418719,45.3655172 76.9123153,45.0133005 76.9123153,44.5906404 C76.9123153,44.2384236 76.9827586,43.8862069 76.9827586,43.5339901 C77.053202,42.4773399 77.1940887,42.1955665 77.264532,42.0546798 C77.9689655,40.8571429 78.8142857,39.7300493 79.5891626,38.673399 C82.0546798,35.1512315 84.4497537,31.8403941 84.4497537,26.9093596 C84.4497537,22.1192118 82.4068966,17.5403941 78.8142857,14.3 C75.2216749,11.1300493 70.4315271,9.58029557 65.570936,10.1438424 C57.1881773,11.1300493 50.7073892,18.526601 50.7778325,26.979803 C50.8482759,31.9108374 53.1729064,35.1512315 55.6384236,38.6029557 C56.4133005,39.8004926 57.1881773,40.9275862 57.9630542,42.1251232 Z M65.8527094,12.3980296 C70.0793103,11.9049261 74.1650246,13.1729064 77.3349754,15.9906404 C80.4344828,18.737931 82.2660099,22.753202 82.2660099,26.9093596 C82.2660099,31.1359606 80.2231527,34.0241379 77.8280788,37.4054187 C77.053202,38.5325123 76.2078818,39.6596059 75.4330049,40.9275862 C75.2216749,41.3502463 75.0807882,41.8433498 74.9399015,42.3364532 L60.2876847,42.3364532 C60.2172414,41.7729064 60.0763547,41.279803 59.7945813,40.9275862 C59.0197044,39.6596059 58.1743842,38.5325123 57.3995074,37.4054187 C55.0044335,34.0945813 52.9615764,31.2064039 52.9615764,27.0502463 C52.891133,19.7241379 58.526601,13.3137931 65.8527094,12.3980296 Z M42.4655172,30.1497537 C41.1038497,30.1497537 40,29.045904 40,27.6842365 C40,26.3225689 41.1038497,25.2187192 42.4655172,25.2187192 C43.8271848,25.2187192 44.9310345,26.3225689 44.9310345,27.6842365 C44.9310345,29.045904 43.8271848,30.1497537 42.4655172,30.1497537 Z M92.762069,30.1497537 C91.4004014,30.1497537 90.2965517,29.045904 90.2965517,27.6842365 C90.2965517,26.3225689 91.4004014,25.2187192 92.762069,25.2187192 C94.1237365,25.2187192 95.2275862,26.3225689 95.2275862,27.6842365 C95.2275862,29.045904 94.1237365,30.1497537 92.762069,30.1497537 Z M67.6137931,4.93103448 C66.2521255,4.93103448 65.1482759,3.82718481 65.1482759,2.46551724 C65.1482759,1.10384967 66.2521255,1.42108547e-14 67.6137931,1.42108547e-14 C68.9754607,1.42108547e-14 70.0793103,1.10384967 70.0793103,2.46551724 C70.0793103,3.82718481 68.9754607,4.93103448 67.6137931,4.93103448 Z M51.5598312,47.2553503 C50.596996,48.2181854 49.0359318,48.2181854 48.0730967,47.2553503 C47.1102616,46.2925152 47.1102616,44.731451 48.0730967,43.7686158 C49.0359318,42.8057807 50.596996,42.8057807 51.5598312,43.7686158 C52.5226663,44.731451 52.5226663,46.2925152 51.5598312,47.2553503 Z M87.1647179,11.5952219 C86.2018827,12.5580571 84.6408185,12.5580571 83.6779834,11.5952219 C82.7151483,10.6323868 82.7151483,9.07132258 83.6779834,8.10848744 C84.6408185,7.1456523 86.2018827,7.1456523 87.1647179,8.10848744 C88.127553,9.07132258 88.127553,10.6323868 87.1647179,11.5952219 Z M87.1923739,47.2277647 C86.2295388,48.1905998 84.6684746,48.1905998 83.7056395,47.2277647 C82.7428043,46.2649295 82.7428043,44.7038653 83.7056395,43.7410302 C84.6684746,42.7781951 86.2295388,42.7781951 87.1923739,43.7410302 C88.1552091,44.7038653 88.1552091,46.2649295 87.1923739,47.2277647 Z M51.5321751,11.622878 C50.56934,12.5857131 49.0082758,12.5857131 48.0454406,11.622878 C47.0826055,10.6600428 47.0826055,9.09897864 48.0454406,8.1361435 C49.0082758,7.17330836 50.56934,7.17330836 51.5321751,8.1361435 C52.4950103,9.09897864 52.4950103,10.6600428 51.5321751,11.622878 Z" id="Combined-Shape" fill-rule="nonzero"></path>
                <path d="M46,69 L46,112 L50.3,112 L50.3,99.1 L84.7,99.1 L84.7,112 L89,112 L89,69 L46,69 Z M63,82 L63,73 L85,73 L85,82 L63,82 Z M50,73 L59,73 L59,82 L50,82 L50,73 Z M50,86 L72,86 L72,95 L50,95 L50,86 Z M76,95 L76,86 L85,86 L85,95 L76,95 Z" id="Shape" fill-rule="nonzero"></path>
            </g>
        </g>
    </g>
</svg>