<svg xmlns="http://www.w3.org/2000/svg" width="211" height="65" viewBox="0 0 211 65">
    <g fill="none" fill-rule="evenodd">
        <path fill="#CEC155" d="M19.512 46.624v-8.925c0-.21.189-.399.399-.399h2.583c.231 0 .399.189.399.399v8.757c0 1.533 1.092 2.394 2.583 2.394 1.512 0 2.625-.861 2.625-2.394v-8.757c0-.21.168-.399.399-.399h2.583c.21 0 .399.189.399.399v8.925c0 3.192-2.688 5.586-6.006 5.586-3.297 0-5.964-2.394-5.964-5.586zm23.793 4.977l-.021-14.133c0-.21.189-.378.399-.378h.315c.21 0 .357.147.525.315l8.064 7.749h.021v-7.455c0-.21.168-.399.399-.399h2.52c.21 0 .399.189.399.399v14.133c0 .252-.189.378-.399.378h-.21c-.21 0-.357-.063-.525-.231l-8.169-8.211h-.021v7.833c0 .21-.168.399-.399.399h-2.499a.413.413 0 0 1-.399-.399zm28.77.609c-2.73 0-4.242-1.134-4.725-1.617-.168-.168-.231-.357-.084-.63l.966-1.701c.168-.273.504-.273.714-.126.588.399 1.659 1.155 2.982 1.155.84 0 1.449-.525 1.449-1.26 0-.882-.777-1.449-2.163-2.121-2.037-.987-4.074-2.121-4.074-4.641 0-2.079 1.617-4.179 4.851-4.179 2.184 0 3.864 1.113 4.494 1.575.252.147.21.525.126.672l-1.071 1.617c-.147.231-.504.399-.924.147-.483-.336-1.722-1.134-2.835-1.134-.882 0-1.281.546-1.281 1.155 0 .693.819 1.239 2.289 1.953 1.848.903 4.242 1.932 4.242 4.788 0 2.163-1.869 4.347-4.956 4.347zm16.086-.609V37.699c0-.21.189-.399.399-.399h2.499c.231 0 .399.189.399.399v5.292h6.006v-5.292c0-.21.168-.399.399-.399h2.499c.21 0 .399.189.399.399v13.902c0 .21-.189.399-.399.399h-2.499a.399.399 0 0 1-.399-.399v-5.523h-6.006v5.523c0 .21-.168.399-.399.399H88.56a.413.413 0 0 1-.399-.399zm24.57 0V37.699c0-.21.168-.399.399-.399h8.694c.231 0 .399.189.399.399v2.289c0 .21-.168.399-.399.399h-5.817v2.604h4.788c.21 0 .399.189.399.399v2.289a.399.399 0 0 1-.399.399h-4.788v2.835h5.817c.231 0 .399.189.399.399v2.289c0 .21-.168.399-.399.399h-8.694a.399.399 0 0 1-.399-.399zm20.79 0V37.699c0-.21.168-.399.399-.399h2.499c.21 0 .399.189.399.399v11.214h4.998c.231 0 .399.189.399.399v2.289c0 .21-.168.399-.399.399h-7.896a.399.399 0 0 1-.399-.399zm19.362 0V37.699c0-.21.168-.399.399-.399h8.694c.231 0 .399.189.399.399v2.289c0 .21-.168.399-.399.399h-5.817v3.024h4.788c.21 0 .399.189.399.399v2.289c0 .21-.189.399-.399.399h-4.788v5.103c0 .21-.189.399-.399.399h-2.478a.399.399 0 0 1-.399-.399zm18.774-1.659c0-1.281 1.05-2.331 2.289-2.331s2.331 1.05 2.331 2.331c0 1.239-1.092 2.289-2.331 2.289-1.239 0-2.289-1.05-2.289-2.289z"/>
        <path stroke="#CEC155" stroke-width="3" d="M1.5 1.5h208v62H1.5z"/>
    </g>
</svg>
